<?xml version="1.0" standalone="no"?>
<!DOCTYPE svg PUBLIC "-//W3C//DTD SVG 20010904//EN"
 "http://www.w3.org/TR/2001/REC-SVG-20010904/DTD/svg10.dtd">
<svg version="1.0" xmlns="http://www.w3.org/2000/svg"
 width="249.000000pt" height="245.000000pt" viewBox="0 0 249.000000 245.000000"
 preserveAspectRatio="xMidYMid meet">

<g transform="translate(0.000000,245.000000) scale(0.100000,-0.100000)"
fill="#000000" stroke="none">
<path d="M1195 2324 c-217 -26 -366 -77 -524 -182 -71 -47 -191 -160 -246
-232 -241 -315 -287 -736 -120 -1097 19 -42 39 -72 45 -68 6 4 -1 28 -20 64
-69 137 -101 282 -101 457 0 139 18 240 65 366 92 245 303 471 540 578 66 30
86 31 86 5 0 -25 19 -26 84 -6 72 22 249 45 301 39 37 -4 45 5 45 47 0 32 -50
41 -155 29z"/>
<path d="M1597 2038 c-28 -72 -26 -87 10 -88 10 0 88 129 81 135 -9 7 -48 25
-55 25 -4 0 -21 -32 -36 -72z m67 43 c9 -15 -55 -124 -67 -112 -7 7 -3 28 13
65 21 52 41 69 54 47z"/>
<path d="M1676 2015 c-20 -36 -36 -70 -36 -75 0 -9 39 -34 44 -28 3 3 67 104
79 124 3 6 -7 18 -23 27 l-28 17 -36 -65z m40 -28 c-18 -28 -39 -52 -45 -52
-16 0 -14 8 16 69 23 47 29 53 45 45 16 -9 15 -13 -16 -62z"/>
<path d="M1740 1965 c-41 -63 -42 -66 -24 -80 10 -8 21 -14 24 -14 3 0 27 28
54 61 l49 61 -24 18 c-13 10 -27 19 -30 19 -4 0 -26 -29 -49 -65z m69 36 c12
-8 7 -19 -24 -58 -21 -26 -40 -50 -42 -52 -2 -3 -8 0 -14 6 -8 8 -1 26 23 62
36 55 36 55 57 42z"/>
<path d="M1806 1920 c-47 -59 -48 -61 -30 -81 18 -19 18 -19 76 38 l58 57 -22
23 c-12 13 -24 23 -27 23 -3 0 -28 -27 -55 -60z m72 27 c9 -10 0 -24 -37 -61
-61 -60 -77 -45 -25 24 41 54 46 57 62 37z"/>
<path d="M1260 1776 c0 -93 4 -157 10 -161 7 -4 10 50 10 154 0 101 -4 161
-10 161 -6 0 -10 -58 -10 -154z"/>
<path d="M1870 1865 c-54 -55 -54 -55 -35 -75 20 -19 20 -19 78 33 l59 52 -24
22 -24 23 -54 -55z m69 21 c9 -11 1 -22 -38 -56 -69 -57 -87 -42 -25 21 27 27
49 49 50 49 1 0 7 -6 13 -14z"/>
<path d="M566 1862 l-27 -29 90 -74 c50 -41 91 -78 91 -82 0 -5 -8 -21 -19
-35 -130 -185 -148 -480 -43 -689 39 -77 112 -172 164 -215 46 -37 137 -98
148 -98 4 0 12 11 18 24 10 23 8 27 -36 52 -57 34 -154 124 -193 181 -22 31
-34 40 -49 36 -17 -4 -24 4 -45 52 -44 99 -57 177 -53 305 6 133 26 206 90
314 49 83 144 180 221 227 52 31 70 49 49 49 -12 0 -118 -71 -162 -109 l-36
-30 -88 75 c-49 41 -89 74 -90 74 -1 0 -15 -13 -30 -28z m120 -63 c80 -68 84
-73 68 -90 -20 -22 -18 -23 -117 60 -73 61 -76 65 -61 83 10 10 19 18 21 18 2
0 42 -32 89 -71z"/>
<path d="M1565 1859 c-4 -11 -5 -22 -3 -23 94 -65 137 -97 147 -110 13 -15 15
-15 31 -1 16 15 20 13 53 -27 221 -269 215 -634 -15 -892 -37 -42 -106 -95
-197 -153 -2 -2 -2 -6 1 -9 10 -10 84 34 147 86 34 28 65 49 70 46 5 -3 44
-35 87 -71 43 -36 81 -65 84 -65 4 0 16 13 28 29 l21 29 -89 73 -88 73 24 41
c73 119 107 236 107 375 0 170 -54 319 -162 447 -54 65 -196 173 -226 173 -7
0 -17 -9 -20 -21z m355 -1095 c68 -57 78 -69 69 -85 -5 -11 -14 -19 -20 -19
-5 0 -46 30 -89 66 -68 57 -78 69 -69 85 5 11 14 19 20 19 5 0 46 -30 89 -66z"/>
<path d="M1922 1808 c-62 -52 -62 -52 -43 -72 20 -19 20 -19 85 24 l66 42 -21
29 c-11 16 -21 29 -22 29 -1 0 -30 -24 -65 -52z m87 -1 c-40 -33 -103 -67
-116 -63 -9 4 -14 8 -12 10 2 2 26 22 54 45 43 36 51 39 64 26 8 -8 13 -16 10
-18z"/>
<path d="M2142 1805 l-23 -24 39 -78 c55 -109 91 -230 105 -350 9 -86 14 -103
28 -103 15 0 17 -8 13 -57 -8 -91 -34 -212 -60 -281 -92 -247 -271 -451 -495
-567 -87 -45 -87 -45 -101 -23 -14 21 -15 21 -67 3 -47 -15 -52 -20 -47 -40 4
-17 1 -25 -11 -29 -27 -8 -142 -25 -200 -29 -50 -4 -53 -3 -53 19 0 21 -5 24
-42 24 -24 1 -76 7 -116 14 -72 12 -73 12 -78 -11 -4 -13 -10 -23 -15 -23 -5
0 -9 -6 -9 -14 0 -20 134 -39 270 -38 502 3 930 357 1035 857 34 159 18 394
-35 551 -24 68 -99 224 -109 224 -3 0 -16 -11 -29 -25z"/>
<path d="M1485 1613 c4 -27 8 -49 9 -51 7 -7 96 12 96 21 0 6 -16 7 -40 3
l-40 -6 -6 40 c-4 22 -11 40 -16 40 -6 0 -8 -18 -3 -47z"/>
<path d="M1447 1573 c3 -27 7 -49 8 -51 5 -7 95 12 95 21 0 6 -16 7 -39 3
l-38 -6 -7 40 c-9 58 -27 51 -19 -7z"/>
<path d="M1200 1391 c-40 -21 -80 -83 -80 -125 0 -49 36 -110 79 -134 100 -56
221 13 221 127 0 116 -118 187 -220 132z m151 -50 c24 -25 29 -38 29 -78 -1
-73 -42 -113 -115 -113 -55 0 -105 53 -105 110 0 34 6 48 34 76 29 29 41 34
81 34 38 0 52 -5 76 -29z"/>
<path d="M420 1260 c0 -47 4 -80 10 -80 6 0 10 33 10 80 0 47 -4 80 -10 80 -6
0 -10 -33 -10 -80z"/>
<path d="M470 1259 c0 -51 4 -78 10 -74 6 3 10 40 10 81 0 43 -4 74 -10 74 -6
0 -10 -34 -10 -81z"/>
<path d="M523 1260 c0 -47 2 -66 4 -42 2 23 2 61 0 85 -2 23 -4 4 -4 -43z"/>
<path d="M2020 1259 c0 -51 4 -78 10 -74 6 3 10 40 10 81 0 43 -4 74 -10 74
-6 0 -10 -34 -10 -81z"/>
<path d="M2070 1260 c0 -52 4 -79 10 -75 6 3 10 37 10 75 0 38 -4 72 -10 75
-6 4 -10 -23 -10 -75z"/>
<path d="M2117 1333 c-11 -10 -8 -141 3 -148 6 -4 10 23 10 74 0 81 -1 87 -13
74z"/>
<path d="M442 1093 c-60 -14 -62 -15 -56 -41 4 -15 8 -30 10 -33 4 -7 134 29
147 41 14 13 -3 50 -21 49 -9 0 -45 -7 -80 -16z m82 -23 c-15 -13 -106 -40
-115 -34 -17 10 -9 34 14 39 73 17 102 20 106 12 2 -5 -1 -12 -5 -17z"/>
<path d="M321 1052 c-1 -36 46 -168 90 -252 40 -77 162 -240 180 -240 6 0 -12
26 -39 58 -98 114 -172 250 -211 387 -11 39 -20 60 -20 47z"/>
<path d="M488 1021 c-93 -30 -89 -26 -77 -61 6 -16 15 -30 19 -30 8 0 129 50
139 56 6 5 -9 54 -17 53 -4 0 -33 -8 -64 -18z m62 -15 c0 -12 -84 -56 -108
-56 -9 0 -26 30 -20 35 5 4 102 33 116 34 6 1 12 -5 12 -13z"/>
<path d="M1025 1020 l-40 -7 36 -2 c34 -1 37 -4 46 -43 l11 -43 1 53 c0 28 -2
51 -6 51 -5 -1 -26 -5 -48 -9z"/>
<path d="M940 980 c0 -5 18 -10 40 -10 39 0 40 -1 40 -34 0 -19 5 -38 10 -41
6 -4 10 13 10 44 l0 51 -50 0 c-27 0 -50 -4 -50 -10z"/>
<path d="M503 938 l-72 -30 16 -34 16 -33 69 37 c70 38 77 47 56 74 -12 14
-21 12 -85 -14z m77 -2 c0 -8 -24 -28 -52 -45 -49 -28 -54 -29 -66 -13 -12 15
-7 20 45 44 68 32 73 33 73 14z"/>
<path d="M1260 750 c0 -100 4 -160 10 -160 6 0 10 60 10 160 0 100 -4 160 -10
160 -6 0 -10 -60 -10 -160z"/>
<path d="M538 862 l-66 -37 14 -28 c8 -15 19 -27 25 -27 13 0 129 80 129 89
-1 8 -26 41 -31 41 -2 0 -34 -17 -71 -38z m79 1 c2 -5 -21 -26 -51 -46 -52
-35 -56 -36 -66 -18 -9 17 -3 23 43 50 52 31 68 34 74 14z"/>
<path d="M580 788 c-56 -40 -60 -50 -33 -80 18 -20 20 -18 92 44 37 32 41 39
31 57 -15 28 -26 26 -90 -21z m80 9 c0 -7 -21 -29 -47 -50 -43 -34 -48 -36
-62 -22 -14 14 -14 17 -1 25 8 5 33 22 55 38 39 30 55 32 55 9z"/>
<path d="M630 720 l-55 -49 25 -25 26 -26 53 54 c47 47 52 56 42 75 -17 30
-29 26 -91 -29z m80 16 c0 -6 -20 -31 -43 -54 -40 -39 -45 -42 -58 -26 -12 15
-8 21 36 59 48 42 65 47 65 21z"/>
<path d="M693 661 l-52 -58 25 -24 c14 -13 28 -19 32 -13 45 52 94 115 91 117
-2 1 -13 10 -25 19 -19 17 -22 16 -71 -41z m72 29 c12 -20 -67 -112 -89 -104
-23 9 -20 16 25 68 42 47 53 54 64 36z"/>
<path d="M757 609 c-26 -32 -47 -62 -47 -66 1 -9 50 -47 54 -41 12 16 65 97
74 114 10 19 8 24 -11 37 -22 14 -25 13 -70 -44z m73 22 c0 -3 -16 -30 -36
-60 -32 -48 -38 -52 -51 -38 -14 14 -12 20 23 65 22 27 45 47 52 45 6 -3 12
-8 12 -12z"/>
</g>
</svg>
